<svg width="120" height="88" viewBox="0 0 120 88" fill="none" xmlns="http://www.w3.org/2000/svg">
<path d="M29.1648 87.4944C24.1472 87.4944 19.7568 86.5536 15.9936 84.672C12.2304 82.5814 9.19893 79.8635 6.8992 76.5184C4.80853 73.1733 3.136 69.2011 1.8816 64.6016C0.627199 60.0021 0 55.1936 0 50.176C0 39.9317 2.61333 30.3147 7.84 21.3248C13.2757 12.3349 21.6384 5.22667 32.928 0L35.7504 5.6448C29.8965 8.36267 24.6699 12.3349 20.0704 17.5616C15.68 22.5792 13.0667 27.9104 12.2304 33.5552C10.976 37.9456 10.8715 42.2315 11.9168 46.4128C16.5163 41.3952 22.6837 38.8864 30.4192 38.8864C37.5275 38.8864 43.3813 41.0816 47.9808 45.472C52.5803 49.6533 54.88 55.5072 54.88 63.0336C54.88 70.3509 52.4757 76.3093 47.6672 80.9088C42.8587 85.2992 36.6912 87.4944 29.1648 87.4944ZM93.7664 87.4944C88.7488 87.4944 84.3584 86.5536 80.5952 84.672C76.832 82.5814 73.8005 79.8635 71.5008 76.5184C69.4101 73.1733 67.7376 69.2011 66.4832 64.6016C65.2288 60.0021 64.6016 55.1936 64.6016 50.176C64.6016 39.9317 67.2149 30.3147 72.4416 21.3248C77.8773 12.3349 86.24 5.22667 97.5296 0L100.352 5.6448C94.4981 8.36267 89.2715 12.3349 84.672 17.5616C80.2816 22.5792 77.6683 27.9104 76.832 33.5552C75.5776 37.9456 75.4731 42.2315 76.5184 46.4128C81.1179 41.3952 87.2853 38.8864 95.0208 38.8864C102.129 38.8864 107.983 41.0816 112.582 45.472C117.182 49.6533 119.482 55.5072 119.482 63.0336C119.482 70.3509 117.077 76.3093 112.269 80.9088C107.46 85.2992 101.293 87.4944 93.7664 87.4944Z" fill="#7B5646"/>
</svg>
