<svg width="88" height="65" viewBox="0 0 88 65" fill="none" xmlns="http://www.w3.org/2000/svg">
<path d="M12.337 62.2595L12.3439 62.2633L12.3509 62.2668C15.1182 63.6505 18.3354 64.3363 21.9921 64.3363C27.4843 64.3363 32.0147 62.732 35.5524 59.502L35.5524 59.5021L35.5585 59.4963C39.098 56.1107 40.8612 51.7243 40.8612 46.3701C40.8612 40.8762 39.1798 36.558 35.7807 33.4662C32.3955 30.2366 28.0904 28.6296 22.895 28.6296C17.4969 28.6296 13.1131 30.3049 9.7784 33.6741C9.20526 30.9338 9.32724 28.1279 10.1492 25.2511L10.1557 25.2284L10.1592 25.205C10.7493 21.2213 12.5945 17.4462 15.7167 13.8778C18.9969 10.1504 22.7192 7.32297 26.8838 5.38941L27.2199 5.2334L27.0542 4.90204L25.0227 0.839053L24.8665 0.526695L24.5496 0.673414C16.3708 4.45991 10.2911 9.62022 6.33508 16.1629L6.33503 16.1628L6.33192 16.1682C2.53846 22.693 0.640112 29.6774 0.640112 37.1155C0.640112 40.7573 1.09539 44.2504 2.00712 47.5934C2.9174 50.9311 4.13386 53.8239 5.66069 56.2669L5.66486 56.2735L5.66931 56.28C7.358 58.7363 9.58278 60.7294 12.337 62.2595ZM58.8357 62.2595L58.8426 62.2633L58.8496 62.2668C61.6169 63.6505 64.8341 64.3363 68.4908 64.3363C73.983 64.3363 78.5134 62.732 82.0511 59.502L82.0511 59.5021L82.0572 59.4963C85.5967 56.1107 87.3599 51.7243 87.3599 46.3701C87.3599 40.8763 85.6785 36.5581 82.2795 33.4663C78.8943 30.2366 74.5891 28.6296 69.3937 28.6296C63.9956 28.6296 59.6118 30.3049 56.2771 33.6741C55.7039 30.9338 55.8259 28.1279 56.6479 25.2511L56.6544 25.2284L56.6578 25.205C57.248 21.2212 59.0932 17.446 62.2156 13.8776C65.4957 10.1503 69.218 7.32294 73.3825 5.38941L73.7185 5.2334L73.5529 4.90204L71.5214 0.839053L71.3652 0.526695L71.0483 0.673414C62.8695 4.45991 56.7898 9.62022 52.8338 16.1629L52.8337 16.1628L52.8306 16.1682C49.0371 22.693 47.1388 29.6774 47.1388 37.1155C47.1388 40.7573 47.5941 44.2504 48.5058 47.5934C49.4161 50.9311 50.6326 53.8239 52.1594 56.2669L52.1636 56.2735L52.168 56.28C53.8567 58.7363 56.0815 60.7294 58.8357 62.2595Z" fill="#7B5646" stroke="#452728" stroke-width="0.719776"/>
</svg>
